<svg width="130" height="48" viewBox="0 0 160 60" fill="none" xmlns="http://www.w3.org/2000/svg">
  <!-- Dark background -->
  <rect width="160" height="60" rx="4" fill="#0C1510"/>
  <!-- Mango Icon -->
  <g>
    <circle cx="26" cy="30" r="22" fill="#F6921E" />
    <path d="M 8 26 C 8 16 16 10 26 8 C 21 9 14 15 12 24 C 11 28 12 32 14 36 C 9 32 8 28 8 26 Z" fill="#FFB443" opacity="0.8" />
    <path d="M 12 44 C 24 54 42 48 46 34 C 47 42 39 51 26 52 C 18 52 14 48 12 44 Z" fill="#E07A0B" />
    
    <!-- Leaf -->
    <path d="M 40 10 C 40 10 48 0 52 4 C 54 6 49 14 43 15 C 41 15 40 10 40 10" fill="#3C7143" />
    <path d="M 42 12 C 45 6 49 3 51 4" stroke="#2B5230" stroke-width="1" fill="none" />
  </g>

  <!-- Text blocks -->
  <text x="56" y="24" font-family="'Plus Jakarta Sans', 'Inter', system-ui, sans-serif" font-weight="800" font-size="24" letter-spacing="-0.5" fill="#FFFFFF">aam</text>
  <text x="56" y="44" font-family="'Plus Jakarta Sans', 'Inter', system-ui, sans-serif" font-weight="800" font-size="24" letter-spacing="-0.5" fill="#FFFFFF">native</text>
  <text x="58" y="55" font-family="'Plus Jakarta Sans', 'Inter', system-ui, sans-serif" font-weight="500" font-size="6.5" letter-spacing="1.2" fill="rgba(255,255,255,0.7)">AUTHENTIC ALPHONSO</text>
</svg>
