<svg width="120" height="120" viewBox="0 0 60 60" fill="none" xmlns="http://www.w3.org/2000/svg">
  <!-- Mango Icon -->
  <circle cx="26" cy="30" r="22" fill="#F6921E" />
  <path d="M 8 26 C 8 16 16 10 26 8 C 21 9 14 15 12 24 C 11 28 12 32 14 36 C 9 32 8 28 8 26 Z" fill="#FFB443" opacity="0.8" />
  <path d="M 12 44 C 24 54 42 48 46 34 C 47 42 39 51 26 52 C 18 52 14 48 12 44 Z" fill="#E07A0B" />
  
  <!-- Leaf -->
  <path d="M 40 10 C 40 10 48 0 52 4 C 54 6 49 14 43 15 C 41 15 40 10 40 10" fill="#3C7143" />
  <path d="M 42 12 C 45 6 49 3 51 4" stroke="#2B5230" stroke-width="1" fill="none" />
</svg>
